<svg width="24" height="18" viewBox="0 0 24 18" fill="none" xmlns="http://www.w3.org/2000/svg">
<g id="social4.svg" clip-path="url(#clip0_1_4090)">
<path id="Vector" d="M23.5006 3.50805C23.3647 3.02328 23.1 2.5844 22.7346 2.23805C22.3589 1.88106 21.8984 1.62569 21.3966 1.49605C19.5186 1.00105 11.9946 1.00105 11.9946 1.00105C8.85795 0.965367 5.72205 1.12233 2.60462 1.47105C2.10281 1.61027 1.64318 1.87134 1.26662 2.23105C0.896617 2.58705 0.628617 3.02605 0.488617 3.50705C0.15231 5.3188 -0.0110908 7.1584 0.000617182 9.00105C-0.0113828 10.8421 0.151617 12.6811 0.488617 14.4951C0.625617 14.9741 0.892617 15.4111 1.26362 15.7641C1.63462 16.1171 2.09662 16.3721 2.60462 16.5071C4.50762 17.0011 11.9946 17.0011 11.9946 17.0011C15.1353 17.0368 18.2752 16.8798 21.3966 16.5311C21.8984 16.4014 22.3589 16.146 22.7346 15.7891C23.0999 15.4428 23.3643 15.0038 23.4996 14.5191C23.8447 12.708 24.0125 10.8676 24.0006 9.02405C24.0266 7.17266 23.859 5.32362 23.5006 3.50705V3.50805ZM9.60262 12.4251V5.57805L15.8626 9.00205L9.60262 12.4251Z" fill="white"/>
</g>
<defs>
<clipPath id="clip0_1_4090">
<rect width="24" height="18" fill="white"/>
</clipPath>
</defs>
</svg>
